<?xml version="1.0" standalone="no"?>
<!DOCTYPE svg PUBLIC "-//W3C//DTD SVG 20010904//EN"
 "http://www.w3.org/TR/2001/REC-SVG-20010904/DTD/svg10.dtd">
<svg version="1.0" xmlns="http://www.w3.org/2000/svg"
 width="1024.000000pt" height="1024.000000pt" viewBox="0 0 1024.000000 1024.000000"
 preserveAspectRatio="xMidYMid meet">
<metadata>
Created by potrace 1.14, written by Peter Selinger 2001-2017
</metadata>
<g transform="translate(0.000000,1024.000000) scale(0.100000,-0.100000)"
fill="#000000" stroke="none">
<path d="M4908 10235 c-2 -2 -41 -6 -88 -9 -93 -7 -139 -12 -185 -20 -16 -3
-46 -8 -65 -11 -131 -23 -554 -193 -715 -288 -27 -16 -66 -39 -85 -49 -57 -32
-228 -156 -304 -221 -68 -58 -319 -307 -361 -358 -161 -197 -270 -364 -354
-544 -18 -38 -37 -78 -42 -87 -5 -10 -9 -25 -9 -33 0 -8 -4 -15 -10 -15 -5 0
-10 -6 -10 -13 0 -8 -16 -56 -35 -108 -19 -52 -36 -106 -39 -121 -2 -15 -7
-32 -10 -37 -5 -7 -15 -51 -42 -176 -9 -46 -24 -133 -29 -180 -15 -130 -17
-170 -17 -305 0 -166 7 -258 33 -405 5 -33 12 -69 14 -80 6 -37 49 -213 57
-235 3 -8 18 -51 33 -95 14 -44 33 -94 41 -112 8 -17 14 -34 14 -37 0 -3 21
-50 47 -103 25 -54 46 -101 45 -105 -1 -5 2 -8 6 -8 5 0 14 -16 22 -35 8 -19
17 -35 22 -35 4 0 8 -5 8 -12 0 -6 35 -64 78 -127 122 -183 270 -321 394 -366
23 -9 50 -20 58 -24 50 -24 225 -17 330 15 148 44 268 122 349 228 80 105 102
166 97 276 -5 110 -44 205 -177 432 -137 232 -220 431 -245 583 -3 17 -9 44
-13 61 -5 17 -8 98 -6 180 2 138 5 176 20 244 4 14 8 36 11 50 3 14 12 49 20
77 9 29 16 56 17 60 3 21 76 185 105 238 100 186 306 397 487 500 28 16 52 32
55 35 11 12 285 127 285 119 0 0 20 5 45 11 25 7 56 14 70 16 14 2 34 5 45 8
98 23 356 24 460 1 11 -3 31 -7 45 -9 66 -10 219 -57 290 -88 97 -43 118 -53
190 -96 137 -82 323 -251 378 -344 9 -16 20 -28 24 -28 4 0 8 -5 8 -11 0 -6
13 -30 29 -53 86 -125 190 -402 218 -581 9 -56 9 -247 0 -315 -19 -153 -102
-372 -197 -519 -22 -34 -40 -66 -40 -71 0 -4 -3 -10 -8 -12 -4 -1 -32 -34 -62
-73 -82 -103 -204 -219 -303 -286 -48 -32 -90 -59 -93 -59 -3 0 -29 -16 -59
-35 -30 -19 -55 -32 -55 -29 0 3 -12 -3 -27 -14 -16 -10 -35 -22 -43 -26 -8
-3 -35 -18 -60 -32 -90 -51 -782 -394 -795 -394 -2 0 -65 -29 -140 -65 -76
-36 -139 -65 -141 -65 -2 0 -36 -16 -75 -35 -40 -19 -78 -35 -86 -35 -7 0 -13
-4 -13 -10 0 -5 -7 -10 -15 -10 -8 0 -23 -4 -33 -10 -21 -12 -232 -110 -237
-110 -3 0 -37 -15 -77 -34 -69 -32 -141 -64 -215 -97 -18 -8 -33 -17 -33 -21
0 -5 -6 -8 -14 -8 -7 0 -62 -23 -122 -52 -60 -28 -112 -51 -116 -50 -3 1 -12
-5 -18 -13 -7 -8 -18 -15 -24 -15 -14 0 -252 -117 -287 -141 -14 -10 -28 -16
-31 -13 -3 2 -11 -2 -18 -11 -7 -8 -16 -15 -21 -15 -4 0 -36 -16 -71 -36 -213
-123 -338 -238 -405 -374 -134 -272 -99 -549 92 -735 76 -73 122 -90 245 -89
91 1 118 5 205 34 55 19 102 34 105 35 3 1 22 9 44 18 21 9 40 17 43 17 4 0
177 72 218 90 11 5 76 32 145 61 69 28 139 57 155 64 17 8 131 57 255 110 375
161 893 394 1154 519 76 36 141 66 144 66 12 0 796 393 912 457 178 99 194
108 277 164 124 84 238 179 377 315 6 6 29 33 51 58 22 26 50 59 63 72 29 33
169 234 203 293 65 111 182 347 232 466 56 135 68 163 73 180 42 131 73 236
77 260 3 17 8 41 11 55 8 33 14 72 23 140 10 75 10 380 0 460 -5 36 -10 76
-11 90 -2 14 -6 39 -9 55 -3 17 -9 46 -11 65 -3 19 -8 46 -11 60 -3 14 -8 38
-11 54 -2 16 -7 32 -9 36 -2 3 -6 20 -9 36 -11 59 -18 90 -33 139 -31 101 -85
256 -103 297 -10 24 -19 46 -20 50 -1 16 -137 275 -175 337 -44 69 -172 246
-220 301 -48 55 -227 231 -279 275 -27 22 -85 66 -130 98 -44 32 -89 64 -99
72 -9 8 -19 15 -21 15 -3 0 -40 22 -83 48 -43 27 -103 61 -133 75 -30 15 -62
32 -70 37 -15 9 -47 24 -170 75 -183 77 -418 152 -570 182 -29 5 -596 13 -602
8z"/>
<path d="M7238 5054 c-2 -1 -24 -5 -48 -8 -40 -5 -120 -30 -175 -56 -11 -5
-90 -38 -176 -74 -85 -35 -185 -78 -222 -95 -37 -17 -70 -31 -73 -31 -3 0 -29
-11 -57 -24 -72 -32 -222 -99 -402 -178 -49 -22 -103 -46 -119 -54 -16 -8 -35
-14 -41 -14 -7 0 -18 -7 -25 -15 -7 -8 -18 -15 -26 -15 -7 0 -52 -18 -99 -40
-47 -22 -88 -40 -90 -40 -2 0 -36 -15 -77 -34 -73 -34 -473 -215 -538 -244
-19 -9 -38 -15 -42 -14 -5 1 -8 -2 -8 -8 0 -5 -4 -10 -10 -10 -5 0 -48 -18
-95 -40 -47 -22 -88 -40 -90 -40 -3 0 -38 -16 -77 -34 -76 -36 -204 -96 -298
-139 -54 -24 -155 -71 -255 -118 -27 -13 -52 -24 -55 -24 -10 -3 -159 -73
-435 -205 -71 -34 -136 -63 -142 -63 -7 0 -13 -4 -13 -9 0 -4 -4 -8 -10 -8
-10 0 -539 -260 -625 -307 -27 -15 -59 -35 -69 -45 -11 -10 -28 -20 -38 -24
-10 -3 -18 -10 -18 -15 0 -5 -5 -9 -10 -9 -10 0 -42 -26 -111 -90 -48 -45
-110 -165 -136 -265 -35 -135 -32 -346 6 -440 51 -124 84 -170 157 -218 94
-62 230 -69 416 -21 94 24 270 87 320 114 10 6 23 10 29 10 6 0 25 6 42 14 93
42 148 66 152 66 2 0 30 12 62 27 32 14 64 26 71 26 6 0 12 4 12 9 0 4 7 8 15
8 8 0 23 4 33 10 22 12 152 70 157 70 3 0 28 11 57 24 81 37 152 69 158 71 3
0 20 9 37 18 18 10 35 17 38 17 3 0 34 14 70 30 36 17 67 30 70 30 2 0 39 16
82 36 43 20 141 65 218 99 78 35 174 79 215 98 135 62 213 98 390 179 96 44
218 101 270 125 52 25 131 62 175 83 44 21 119 56 168 79 48 22 124 58 170 80
340 159 960 467 1121 555 141 78 211 137 288 246 55 78 108 177 132 245 10 28
21 57 24 65 11 32 13 47 17 112 9 177 -88 363 -237 455 -34 21 -64 38 -67 38
-3 1 -23 7 -44 14 -21 7 -41 11 -43 8 -3 -2 -20 -1 -39 3 -19 4 -35 6 -37 4z"/>
<path d="M7180 3085 c-30 -7 -56 -14 -57 -14 -2 -1 -8 -3 -15 -5 -63 -20 -209
-75 -328 -126 -80 -34 -151 -62 -157 -63 -7 0 -13 -3 -13 -6 0 -3 -15 -12 -32
-20 -18 -7 -53 -22 -78 -33 -74 -34 -115 -52 -120 -53 -3 0 -32 -14 -65 -29
-33 -16 -116 -53 -185 -83 -69 -31 -131 -60 -137 -65 -7 -6 -13 -7 -13 -3 0 4
-6 3 -12 -3 -7 -6 -76 -38 -153 -72 -77 -34 -158 -70 -180 -80 -22 -10 -107
-48 -190 -85 -82 -37 -168 -75 -190 -85 -46 -21 -107 -46 -117 -49 -4 -1 -39
-17 -78 -36 -38 -19 -72 -35 -74 -35 -5 0 -91 -39 -234 -106 -51 -24 -95 -44
-97 -44 -2 0 -46 -20 -97 -44 -101 -48 -203 -95 -313 -146 -435 -200 -1287
-617 -1293 -632 -2 -4 -12 -8 -22 -8 -10 0 -20 -4 -22 -9 -1 -5 -25 -20 -53
-34 -302 -154 -440 -594 -282 -901 23 -45 118 -144 157 -163 37 -19 82 -35
110 -41 37 -8 210 -8 250 0 43 9 179 46 200 55 8 3 17 7 20 8 21 5 60 19 85
30 17 7 100 43 185 80 173 75 213 93 318 141 41 19 75 34 77 34 1 0 47 21 101
46 55 25 113 52 129 59 17 7 113 52 215 98 102 47 212 97 245 112 33 15 102
47 152 71 51 24 95 44 97 44 2 0 55 24 117 54 63 29 137 64 164 76 28 12 97
45 155 73 58 27 134 63 169 79 91 41 204 94 291 135 41 20 102 48 135 63 33
15 116 54 185 87 69 33 152 73 185 88 33 15 119 56 190 90 72 34 171 82 220
105 504 236 638 315 780 455 85 84 154 204 170 296 3 18 8 35 10 39 14 23 21
168 11 240 -10 77 -18 104 -49 175 -23 52 -31 64 -85 126 -33 37 -139 99 -171
99 -10 0 -21 3 -25 7 -17 18 -125 22 -186 8z"/>
</g>
</svg>
